<?xml version="1.0" encoding="utf-8"?>
<!-- Generator: Adobe Illustrator 22.1.0, SVG Export Plug-In . SVG Version: 6.00 Build 0)  -->
<svg xmlns="http://www.w3.org/2000/svg" xmlns:xlink="http://www.w3.org/1999/xlink" version="1.1" id="Layer_1" x="0px" y="0px" viewBox="0 0 256 256" style="enable-background:new 0 0 256 256;" xml:space="preserve" width="512" height="512">
<style type="text/css">
	.st0{fill:#FF4397;}
	.st1{fill:#E12579;}
	.st2{fill:#FF61B5;}
	.st3{fill:#690589;}
	.st4{fill:#FCC24C;}
	.st5{fill:#7BAC51;}
	.st6{fill:#5D8E33;}
	.st7{fill:#99CA6F;}
	.st8{fill:#E18152;}
	.st9{fill:#F4EFED;}
	.st10{fill:#FF9F70;}
	.st11{fill:#FFBD8E;}
	.st12{fill:#D6D1CF;}
	.st13{fill:#FFFFFF;}
	.st14{fill:#FCE06A;}
	.st15{fill:#DEA42E;}
</style>
<g>
	<g>
		<polygon class="st4" points="128.08,60.925 179.485,4.122 175.486,80.627 252,76.811 195.075,128.08 251.877,179.485     175.373,175.486 179.189,252 127.92,195.075 76.515,251.878 80.514,175.373 4,179.189 60.925,127.92 4.122,76.515 80.627,80.514     76.811,4   "/>
	</g>
	<g>
		<path class="st3" d="M179.189,254c-0.555,0-1.099-0.231-1.487-0.661l-49.786-55.279l-49.918,55.16    c-0.567,0.627-1.469,0.831-2.25,0.505c-0.781-0.324-1.274-1.106-1.229-1.951l3.883-74.293L4.1,181.187    c-0.858,0.044-1.625-0.451-1.948-1.234c-0.323-0.781-0.119-1.683,0.51-2.249l55.279-49.787L2.781,77.998    c-0.627-0.568-0.83-1.47-0.505-2.251c0.324-0.781,1.097-1.277,1.951-1.229L78.519,78.4L74.813,4.1    c-0.042-0.845,0.452-1.625,1.234-1.948c0.783-0.325,1.683-0.118,2.25,0.51l49.786,55.279l49.918-55.16    c0.568-0.627,1.47-0.829,2.25-0.505c0.781,0.324,1.274,1.106,1.229,1.951l-3.883,74.293l74.302-3.706    c0.852-0.045,1.625,0.451,1.948,1.234c0.323,0.781,0.119,1.683-0.51,2.249l-55.279,49.787l55.16,49.918    c0.627,0.568,0.83,1.47,0.505,2.251c-0.324,0.781-1.102,1.272-1.951,1.229L177.48,177.6l3.706,74.301    c0.042,0.845-0.452,1.625-1.234,1.948C179.705,253.951,179.446,254,179.189,254z M127.92,193.075    c0.549-0.01,1.107,0.24,1.486,0.661l47.505,52.746l-3.536-70.896c-0.028-0.565,0.185-1.116,0.585-1.516    c0.401-0.399,0.943-0.608,1.517-0.581l70.888,3.705l-52.632-47.631c-0.42-0.38-0.659-0.92-0.658-1.485    c0-0.566,0.241-1.105,0.662-1.484l52.746-47.506l-70.897,3.536c-0.565,0.032-1.115-0.183-1.516-0.585    c-0.399-0.4-0.611-0.951-0.581-1.517l3.705-70.889l-47.631,52.633c-0.379,0.419-0.918,0.658-1.483,0.658c-0.001,0-0.001,0-0.002,0    c-0.566-0.001-1.105-0.241-1.484-0.661L79.089,9.518l3.536,70.896c0.028,0.565-0.185,1.116-0.585,1.516    c-0.401,0.399-0.949,0.613-1.517,0.581L9.635,78.806l52.632,47.631c0.42,0.38,0.659,0.92,0.658,1.485    c0,0.566-0.241,1.105-0.662,1.484L9.518,176.912l70.897-3.536c0.562-0.029,1.116,0.184,1.516,0.585    c0.399,0.4,0.611,0.951,0.581,1.517l-3.705,70.889l47.631-52.633C126.816,193.314,127.355,193.075,127.92,193.075z"/>
	</g>
	<g>
		<polygon class="st9" points="108.3,166.72 89.571,147.992 179.115,53.53 203.854,52.438 202.761,77.177   "/>
	</g>
	<g>
		<polygon class="st12" points="203.324,64.451 102.272,160.692 108.3,166.721 202.761,77.177   "/>
	</g>
	<g>
		<path class="st0" d="M67.33,216.975l-3.857,3.857c-1.651,1.651-4.328,1.651-5.979,0l-23.53-23.53    c-1.651-1.651-1.651-4.328,0-5.979l3.857-3.857c1.651-1.651,4.328-1.651,5.979,0l23.53,23.53    C68.981,212.648,68.981,215.324,67.33,216.975z"/>
	</g>
	<g>
		<path class="st0" d="M109.704,194.354l-47.766-47.766c-2.201-2.201-2.201-5.77,0-7.972l5.143-5.143    c2.201-2.201,5.77-2.201,7.972,0l47.767,47.766c2.201,2.201,2.201,5.771,0,7.972l-5.143,5.143    C115.474,196.555,111.905,196.555,109.704,194.354z"/>
	</g>
	<g>
		<path class="st1" d="M122.053,180.474l-6.028-6.028c2.624,2.624,2.624,6.879,0,9.503l-3.612,3.612    c-2.624,2.624-6.879,2.624-9.503,0l6.028,6.028c2.624,2.624,6.879,2.624,9.503,0l3.612-3.612    C124.677,187.353,124.677,183.098,122.053,180.474z"/>
	</g>
	<g>
		<path class="st2" d="M75.818,134.239l6.028,6.028c-2.624-2.624-6.879-2.624-9.503,0l-3.612,3.612    c-2.624,2.624-2.624,6.879,0,9.503l-6.028-6.028c-2.624-2.624-2.624-6.879,0-9.503l3.612-3.612    C68.939,131.615,73.194,131.615,75.818,134.239z"/>
	</g>
	<g>
		
			<rect x="50.201" y="178.27" transform="matrix(0.7071 -0.7071 0.7071 0.7071 -110.1591 104.5029)" class="st5" width="41.731" height="13.91"/>
	</g>
	<g>
		<path class="st4" d="M98.936,170.471c-3.621,3.622-9.493,3.622-13.115,0c-3.622-3.621-3.622-9.493,0-13.115    c3.622-3.621,9.493-3.621,13.115,0C102.557,160.978,102.557,166.849,98.936,170.471z"/>
	</g>
	<g>
		<path class="st1" d="M67.503,211.17l-6.028-6.028c1.968,1.968,1.968,5.159,0,7.127l-2.709,2.709c-1.968,1.968-5.159,1.968-7.127,0    l6.028,6.028c1.968,1.968,5.159,1.968,7.127,0l2.709-2.709C69.471,216.329,69.471,213.138,67.503,211.17z"/>
	</g>
	<g>
		<path class="st2" d="M44.374,188.041l6.028,6.028c-1.968-1.968-5.159-1.968-7.127,0l-2.709,2.709    c-1.968,1.968-1.968,5.159,0,7.127l-6.028-6.028c-1.968-1.968-1.968-5.159,0-7.127l2.709-2.709    C39.215,186.073,42.406,186.073,44.374,188.041z"/>
	</g>
	<g>
		<path class="st3" d="M108.3,168.721c-0.512,0-1.024-0.195-1.414-0.586l-18.729-18.729c-0.767-0.767-0.783-2.004-0.038-2.79    l89.544-94.462c0.357-0.376,0.846-0.6,1.363-0.622l24.739-1.093c0.567-0.018,1.106,0.188,1.502,0.584    c0.397,0.396,0.609,0.941,0.584,1.502l-1.093,24.739c-0.023,0.519-0.246,1.007-0.622,1.363l-94.461,89.544    C109.29,168.538,108.794,168.721,108.3,168.721z M92.362,147.955l15.975,15.975l92.462-87.648l0.961-21.749l-21.749,0.96    L92.362,147.955z"/>
	</g>
	<g>
		<path class="st3" d="M113.689,198.002c-1.956,0-3.911-0.744-5.4-2.233l0,0l-47.766-47.767c-2.978-2.978-2.978-7.822,0-10.8    l5.143-5.144c2.978-2.978,7.823-2.979,10.8,0l47.767,47.767c1.442,1.442,2.237,3.36,2.237,5.4c0,2.039-0.794,3.957-2.237,5.399    l-5.143,5.144C117.601,197.257,115.646,198.002,113.689,198.002z M111.118,192.94c1.417,1.417,3.725,1.418,5.144,0l5.143-5.144    c0.687-0.687,1.065-1.601,1.065-2.571c0-0.972-0.378-1.886-1.065-2.572l-47.767-47.767c-1.418-1.418-3.726-1.419-5.144,0    l-5.143,5.144c-0.687,0.687-1.065,1.601-1.065,2.571c0,0.972,0.378,1.886,1.065,2.572L111.118,192.94z"/>
	</g>
	<g>
		<path class="st3" d="M61.23,206.897c-0.53,0-1.039-0.211-1.414-0.586l-9.836-9.836c-0.781-0.781-0.781-2.047,0-2.828    l29.508-29.509c0.75-0.75,2.078-0.75,2.828,0l9.836,9.836c0.781,0.781,0.781,2.047,0,2.828l-29.508,29.509    C62.27,206.687,61.761,206.897,61.23,206.897z M54.223,195.062l7.007,7.008l26.68-26.681l-7.007-7.008L54.223,195.062z"/>
	</g>
	<g>
		<path class="st3" d="M61.23,224.818c-1.664,0-3.228-0.647-4.404-1.824l-23.529-23.529c-1.176-1.177-1.824-2.74-1.824-4.403    c0-1.664,0.648-3.228,1.824-4.403l3.857-3.857c1.176-1.177,2.74-1.824,4.403-1.824s3.228,0.647,4.404,1.824l23.529,23.529    c1.176,1.177,1.824,2.74,1.824,4.403c0,1.664-0.648,3.228-1.824,4.403l-3.857,3.857C64.458,224.171,62.894,224.818,61.23,224.818z     M41.558,188.977c-0.595,0-1.154,0.231-1.575,0.652l-3.858,3.857c-0.42,0.421-0.652,0.979-0.652,1.575    c0,0.595,0.232,1.154,0.653,1.575l23.529,23.529c0.842,0.842,2.309,0.842,3.15,0l3.858-3.857l0,0    c0.42-0.421,0.652-0.979,0.652-1.575c0-0.595-0.232-1.154-0.653-1.575l-23.529-23.529    C42.712,189.208,42.153,188.977,41.558,188.977z"/>
	</g>
	<g>
		<path class="st3" d="M92.378,175.188c-3.011,0-5.842-1.173-7.972-3.303c-2.129-2.129-3.302-4.96-3.302-7.972    c0-3.011,1.173-5.842,3.302-7.971c2.129-2.13,4.96-3.303,7.971-3.303c3.012,0,5.843,1.173,7.972,3.303    c2.129,2.129,3.302,4.96,3.302,7.971c0,3.012-1.173,5.843-3.302,7.972h0c0,0,0,0,0,0C98.221,174.015,95.39,175.188,92.378,175.188    z M92.378,156.64c-1.942,0-3.769,0.757-5.143,2.131c-1.374,1.374-2.131,3.2-2.131,5.143c0,1.943,0.757,3.77,2.13,5.144    c1.374,1.374,3.201,2.131,5.143,2.131c1.943,0,3.77-0.757,5.143-2.131c0,0,0,0,0,0c1.374-1.374,2.13-3.2,2.13-5.144    c0-1.942-0.757-3.769-2.13-5.143C96.147,157.396,94.321,156.64,92.378,156.64z"/>
	</g>
	<g>
		<path class="st3" d="M99.1,159.521c-0.512,0-1.024-0.195-1.414-0.586c-0.781-0.781-0.781-2.047,0-2.828L202.604,51.188    c0.78-0.781,2.048-0.781,2.828,0c0.781,0.781,0.781,2.047,0,2.828L100.514,158.935C100.124,159.325,99.611,159.521,99.1,159.521z"/>
	</g>
	<g>
		<path class="st3" d="M80.903,185.996c-0.512,0-1.024-0.195-1.414-0.586l-8.607-8.607c-0.781-0.781-0.781-2.047,0-2.828    c0.78-0.781,2.048-0.781,2.828,0l8.607,8.607c0.781,0.781,0.781,2.047,0,2.828C81.927,185.801,81.415,185.996,80.903,185.996z"/>
	</g>
	<g>
		<path class="st3" d="M70.452,196.446c-0.512,0-1.024-0.195-1.414-0.586l-8.606-8.606c-0.781-0.781-0.781-2.047,0-2.828    c0.78-0.781,2.048-0.781,2.828,0l8.606,8.606c0.781,0.781,0.781,2.047,0,2.828C71.476,196.251,70.963,196.446,70.452,196.446z"/>
	</g>
</g>
</svg>
