<svg id="Capa_1" enable-background="new 0 0 512 512" height="512" viewBox="0 0 512 512" width="512" xmlns="http://www.w3.org/2000/svg"><g><g><g><g><g><path d="m18.073 326.834h156.92v47.416h-156.92z" fill="#fb6a3b" transform="matrix(.707 -.707 .707 .707 -219.597 170.931)"/><path d="m25.657 345.14h156.92v25.971h-156.92z" fill="#fb5532" transform="matrix(.707 -.707 .707 .707 -222.738 178.514)"/><path d="m168.779 311.828-27.372 27.372c-6.037-4.909-11.926-10.233-17.615-15.921-5.681-5.681-11.013-11.577-15.914-17.607l27.372-27.372z" fill="#fb5532"/><path d="m43.142 435.111-31.178-31.178c-5.952-5.952-5.952-15.603 0-21.555l.273-.273c5.952-5.952 15.603-5.952 21.555 0l31.178 31.178c5.952 5.952 5.952 15.603 0 21.555l-.273.273c-5.952 5.952-15.603 5.952-21.555 0z" fill="#fca62f"/><path d="m64.837 434.974c-3.015 3.015-6.958 4.522-10.909 4.522s-7.909-1.507-10.924-4.522l-18.364-18.365c3.015 3.015 6.966 4.515 10.916 4.515 3.951 0 7.901-1.5 10.916-4.515 6.023-6.023 6.022-15.795-.007-21.825l18.364 18.364c6.03 6.031 6.03 15.803.008 21.826z" fill="#f98824"/><path d="m417.582 76.597-240.533 240.532-47.103-47.103 240.534-240.534c2.974-2.974 6.773-4.987 10.904-5.778l44.305-8.479c3.643-.697 6.841 2.5 6.145 6.144l-8.473 44.31c-.792 4.133-2.805 7.933-5.779 10.908z" fill="#b5dbfd"/><path d="m417.582 76.6-240.531 240.531-18.365-18.365 240.531-240.531c2.978-2.978 4.983-6.78 5.777-10.916l5.592-29.192 15.104-2.896c3.639-.698 6.84 2.502 6.149 6.149l-8.481 44.304c-.794 4.136-2.799 7.938-5.776 10.916z" fill="#8dcafc"/><path d="m255.472 329.623c-16.876 2.258-40.089-5.712-63.417-21.718-1.835-1.259-2.697-3.527-2.134-5.68l13.697-52.359c1.016-3.884-2.525-7.425-6.409-6.409l-52.359 13.697c-2.153.563-4.421-.299-5.68-2.134-16.006-23.328-23.976-46.541-21.718-63.417-6.758.906-12.491 3.446-16.812 7.768-19.619 19.619-2.607 68.446 38.006 109.058s89.439 57.626 109.058 38.006c4.322-4.321 6.862-10.054 7.768-16.812z" fill="#fca62f"/><path d="m255.477 329.626c-.767 5.683-2.684 10.638-5.846 14.635-20.865-3.604-53.92-15.268-74.143-26.788-6.048-3.441-9.047-10.495-7.284-17.223l11.817-45.18c.728-2.779-.882-5.396-3.287-6.258l20.472-5.357c3.891-1.016 7.428 2.53 6.412 6.412l-13.696 52.358c-.566 2.156.297 4.418 2.137 5.683 23.327 16.006 46.54 23.97 63.418 21.718z" fill="#f98824"/><g><circle cx="106.738" cy="197.82" fill="#bcea73" r="23.854"/><path d="m123.601 214.691c-9.095 9.095-23.718 9.313-33.062.633 5.538-.373 10.972-2.676 15.204-6.907 9.313-9.313 9.313-24.423 0-33.736-.218-.218-.446-.436-.674-.643 6.648-.477 13.451 1.825 18.533 6.917 9.322 9.313 9.322 24.413-.001 33.736z" fill="#99d53b"/><circle cx="249.256" cy="340.337" fill="#bcea73" r="23.854"/><path d="m266.128 357.207c-9.106 9.095-23.728 9.313-33.073.632 5.538-.373 10.972-2.676 15.204-6.907 9.313-9.313 9.313-24.413 0-33.736-.218-.218-.436-.425-.664-.633 6.648-.477 13.451 1.825 18.533 6.907 9.313 9.314 9.313 24.414 0 33.737z" fill="#99d53b"/></g></g></g><path d="m269.537 114.459c-6.752 6.919-5.276 18.294 2.984 23.317 27.371 16.644 79.805 58.873 97.21 145.123 11.954 59.234-27.523 93.987-66.267 108.128-8.682 3.169-7.158 15.964 2.024 17.012 38.779 4.429 94.826-.955 126.445-58.003 0 0-2.893 89.733-156.683 98.08-10.507.57-11.393 15.758-1.016 17.498 91.248 15.299 230.266 10.661 230.266-159.634 0-191.516-79.613-262.429-116.459-284.993-9.98-6.112-22.845-4.556-31.018 3.819z" fill="#eaf6ff"/><g fill="#c4e1ff"><path d="m504.5 305.976c0 170.3-139.02 174.94-230.26 159.64-10.38-1.74-9.5-16.93 1.01-17.5 19.18-1.04 36.01-3.35 50.79-6.59 77.35-3.02 155.06-37.74 155.06-165.06 0-110.48-26.49-180.83-55.98-224.91 37.17 39.46 79.38 114.97 79.38 254.42z"/><path d="m425.9 52.396-2.54 13.29c-.8 4.13-2.8 7.94-5.78 10.91l-99.54 99.54c-6.17-6.99-12.39-13.07-18.38-18.34l99.56-99.56c2.97-2.98 4.98-6.78 5.77-10.92l2.39-12.44c5.87 4.87 12.13 10.66 18.52 17.52z"/></g></g></g><g><path d="m158.627 277.847-.192.21c-2.791 3.061-2.572 7.804.489 10.595 1.438 1.312 3.247 1.958 5.051 1.958 2.035 0 4.064-.824 5.544-2.447l.192-.21c2.791-3.061 2.572-7.804-.489-10.595-3.059-2.79-7.803-2.572-10.595.489z"/><path d="m512 305.98c0-44.493-4.321-85.619-12.842-122.238-.938-4.035-4.968-6.548-9.004-5.605-4.035.938-6.544 4.97-5.605 9.004 8.262 35.506 12.451 75.489 12.451 118.839 0 56.14-15.649 97.85-46.514 123.97-46.959 39.741-121.091 37.309-175.01 28.269-.509-.085-1.142-.191-1.077-1.35.067-1.197.756-1.235 1.259-1.262 35.979-1.953 66.92-8.502 91.963-19.465 20.427-8.942 37.033-20.832 49.359-35.338 21.397-25.184 22.417-49.501 22.451-50.524.112-3.462-2.163-6.55-5.501-7.472-3.34-.919-6.875.564-8.554 3.594-29.203 52.687-80.85 58.549-119.035 54.187-.347-.04-.992-.113-1.115-1.146-.122-1.028.485-1.25.811-1.369 23.142-8.446 42.889-22.559 55.603-39.737 15.918-21.509 21.259-48.107 15.445-76.919-9.353-46.348-28.432-80.408-48.777-104.941l28.686-28.686c11.106 11.641 44.625 51.393 44.625 107.046 0 4.142 3.358 7.5 7.5 7.5s7.5-3.358 7.5-7.5c0-61.729-36.457-104.715-48.998-117.673l18.47-18.47c2.929-2.929 2.929-7.678 0-10.606-2.929-2.929-7.678-2.929-10.606 0l-57.165 57.165c-4.434-4.643-8.861-8.861-13.2-12.685l80.971-80.971c2.929-2.929 2.929-7.678 0-10.606-2.929-2.929-7.678-2.929-10.606 0l-82.021 82.021c-6.157-4.684-11.935-8.534-17.044-11.641-1.987-1.208-3.292-3.217-3.582-5.513-.287-2.272.467-4.517 2.068-6.159l87.487-89.653c5.743-5.886 14.679-6.981 21.732-2.661 9.008 5.516 20.946 14.239 33.682 27.411l-1.813 9.487c-.51 2.673-1.792 5.095-3.716 7.012l-13.245 13.245c-2.929 2.929-2.929 7.678 0 10.606 1.464 1.464 3.384 2.197 5.303 2.197s3.839-.732 5.303-2.197l13.236-13.236c3.607-3.594 6.145-8.042 7.424-12.948 16.497 20.476 33.175 48.732 45.71 87.317 1.279 3.939 5.51 6.1 9.45 4.815 3.939-1.279 6.095-5.511 4.815-9.45-15.16-46.669-36.263-79.19-56.308-101.483l5.234-27.37c.794-4.155-.517-8.421-3.508-11.412-2.992-2.991-7.258-4.304-11.413-3.506l-33.012 6.318c-12.953-7.515-29.132-5.359-39.611 5.381l-87.486 89.653c-4.813 4.932-7.078 11.68-6.215 18.514.132 1.044.342 2.066.611 3.065l-42.147 42.147c-2.929 2.929-2.929 7.678 0 10.606 1.464 1.464 3.384 2.197 5.303 2.197s3.839-.732 5.303-2.197l40.258-40.258c.436.309.88.609 1.342.889 4.271 2.597 9.046 5.756 14.126 9.536l-82.22 82.22c-1.703-.266-3.471-.196-5.22.261l-28.35 7.416 36.969-36.969c2.929-2.929 2.929-7.678 0-10.606-2.929-2.929-7.678-2.929-10.606 0l-50.67 50.67c-5.875-9.115-10.513-18.268-13.608-26.865 5.833-5.906 9.046-13.718 9.046-22.026 0-8.375-3.261-16.249-9.184-22.171-12.225-12.224-32.116-12.224-44.342 0-12.225 12.226-12.225 32.117 0 44.342.148.148.302.286.452.431-.581 19.996 9.788 45.377 27.845 69.655l-81.622 81.622c-8.145-3.15-17.747-1.458-24.309 5.104l-.272.272c-4.294 4.29-6.66 10.001-6.66 16.076s2.366 11.786 6.661 16.081l31.178 31.178c4.434 4.434 10.257 6.65 16.081 6.65s11.647-2.217 16.081-6.65l.272-.272c4.295-4.295 6.661-10.006 6.661-16.082 0-2.865-.544-5.641-1.55-8.234l81.613-81.614c23.631 17.577 48.308 27.871 68.047 27.871.541 0 1.074-.017 1.607-.032.146.152.285.307.434.456 5.922 5.922 13.796 9.184 22.171 9.184s16.249-3.261 22.171-9.184c5.922-5.922 9.184-13.795 9.184-22.171 0-8.375-3.261-16.249-9.184-22.171-12.177-12.177-31.96-12.22-44.197-.137-8.597-3.095-17.75-7.733-26.865-13.608l117.283-117.283c18.661 22.837 36.089 54.411 44.733 97.246 3.402 16.858 9.023 73.864-61.487 99.598-7.228 2.638-11.474 9.561-10.564 17.227.91 7.669 6.66 13.409 14.308 14.282 25.487 2.911 48.777.786 69.22-6.314 10.331-3.588 19.826-8.419 28.449-14.462-25.33 26.902-69.281 42.756-127.461 45.914-8.462.459-14.949 6.936-15.423 15.401-.473 8.443 5.236 15.585 13.573 16.983 19.628 3.291 41.829 5.719 64.6 5.719 43.413 0 88.9-8.827 122.581-37.331 34.387-29.104 51.823-74.665 51.823-135.421zm-90.809-268.879c-4.394-4.119-8.654-7.75-12.698-10.938l15.351-2.938zm-113.483 138.763-104.251 104.25 7.416-28.349c.457-1.747.527-3.514.262-5.216l83.356-83.356c4.335 3.785 8.773 7.997 13.217 12.671zm-212.535 10.391c3.189-3.188 7.376-4.782 11.564-4.782s8.376 1.594 11.564 4.782c3.089 3.089 4.79 7.196 4.79 11.564 0 4.369-1.701 8.476-4.79 11.564s-7.196 4.79-11.564 4.79-8.475-1.701-11.564-4.79c-6.376-6.375-6.376-16.751 0-23.128zm-5.709 194.278-13.304-32.54 21.336-21.336 13.304 32.54zm-46.241.398 21.434-21.434 13.304 32.54-11.816 11.817zm16.443 48.604-.272.272c-3.019 3.019-7.93 3.019-10.948 0l-31.178-31.177c-1.462-1.462-2.268-3.406-2.268-5.474s.805-4.012 2.268-5.475l.272-.272c1.509-1.509 3.492-2.264 5.474-2.264s3.965.754 5.474 2.264l31.178 31.178c1.462 1.462 2.268 3.406 2.268 5.474s-.806 4.012-2.268 5.474zm62.637-81.841-13.304-32.54 13.304-13.304c3.479 4.034 7.163 8.005 11.04 11.882s7.85 7.558 11.883 11.038zm21.646-44.568c-24.27-24.27-40.713-52.862-43.524-74.587 2.055.418 4.167.635 6.313.635 3.189 0 6.305-.476 9.269-1.389 3.991 10.236 9.778 20.982 16.979 31.477 3.044 4.437 8.575 6.506 13.763 5.147l48.642-12.724-12.725 48.642c-1.356 5.188.712 10.718 5.147 13.762 10.504 7.207 21.257 12.995 31.499 16.986-1.554 5.054-1.804 10.423-.751 15.579-21.728-2.799-50.332-19.248-74.612-43.528zm105.306 20.864c4.188 0 8.376 1.594 11.564 4.782 3.089 3.089 4.79 7.196 4.79 11.564 0 4.369-1.701 8.476-4.79 11.564s-7.196 4.79-11.564 4.79-8.475-1.701-11.564-4.79c-6.376-6.376-6.376-16.752 0-23.129 3.189-3.187 7.376-4.781 11.564-4.781z"/><path d="m441.126 317.552c.637.167 1.275.246 1.904.246 3.329 0 6.369-2.232 7.251-5.603 12.4-47.384 6.092-90.124-1.383-117.635-8.108-29.841-19.098-48.403-19.562-49.179-2.126-3.554-6.73-4.713-10.286-2.587-3.555 2.126-4.713 6.731-2.587 10.286.417.697 41.447 70.71 19.306 155.316-1.048 4.009 1.35 8.108 5.357 9.156z"/><path d="m339.268 320.716c.373.055.743.082 1.108.082 3.656 0 6.858-2.677 7.41-6.402 7.569-51.09-22.561-90.156-23.848-91.794-2.555-3.253-7.258-3.817-10.515-1.27-3.258 2.549-3.833 7.26-1.291 10.523.275.353 27.415 35.792 20.815 80.342-.606 4.098 2.224 7.912 6.321 8.519z"/><path d="m501.596 436.508c-3.306-2.487-8.005-1.821-10.499 1.48-.347.459-35.357 45.989-95.155 51.402-4.125.373-7.167 4.02-6.793 8.146.353 3.895 3.624 6.824 7.46 6.824.227 0 .455-.01.685-.031 66.621-6.03 104.229-55.241 105.797-57.333 2.483-3.311 1.811-8.001-1.495-10.488z"/><path d="m474.514 81.969c1.43 2.243 3.854 3.469 6.331 3.469 1.38 0 2.776-.38 4.025-1.177 3.493-2.227 4.519-6.863 2.292-10.356-10.059-15.775-19.177-26.227-19.56-26.664-2.73-3.114-7.465-3.425-10.58-.697s-3.429 7.466-.702 10.582c.086.099 8.788 10.091 18.194 24.843z"/><path d="m306.621 259.813c-3.897 1.402-5.919 5.699-4.517 9.597.019.053 1.944 5.432 3.629 12.828.793 3.478 3.883 5.834 7.306 5.834.552 0 1.113-.061 1.674-.189 4.039-.921 6.566-4.941 5.646-8.979-1.886-8.274-4.05-14.32-4.141-14.574-1.403-3.897-5.697-5.921-9.597-4.517z"/></g></g></svg>